PathFileType	4	(X/Y/Z)	D:\TRACE\spotREDO_2-26-24\spot_Both_Motion_3_10-v60.trc
DataRate	CameraRate	NumFrames	NumMarkers	Units	OrigDataRate	OrigDataStartFrame	OrigNumFrames
100.00	100.00	      24	9	mm	100.00	2626	      7000
Frame#	Time	front left toe			Front right toe			aft left toe			aft right toe			Arm			FL body			FR body			AL Body			AR Body			
		X1	Y1	Z1	X2	Y2	Z2	X3	Y3	Z3	X4	Y4	Z4	X5	Y5	Z5	X6	Y6	Z6	X7	Y7	Z7	X8	Y8	Z8	X9	Y9	Z9	

2626	26.250	-169.83954	82.84846	-488.79999	242.55800	80.51580	-491.31342	-151.43115	0.49416	182.78806	231.85143	9.02677	157.00536	65.78342	722.60089	-782.52393	-48.59991	626.69025	-536.63062	106.87416	631.84900	-539.00476	-40.11964	537.01257	342.91364	107.26694	530.89575	342.81003	
2627	26.260	-169.97990	83.28407	-488.66513	242.50294	80.81737	-491.33212	-151.62106	0.51207	182.92638	231.81757	8.98317	157.12161	65.62675	723.18976	-782.14429	-49.37437	627.63086	-536.82861	106.31100	632.36401	-538.79840	-40.32059	536.75928	343.02686	107.14867	530.66968	342.92285	
2628	26.270	-170.19675	83.60486	-488.52045	242.39116	81.21749	-491.12192	-151.73978	0.48075	183.00194	231.75362	9.03789	157.24420	65.36061	723.30139	-781.70032	-49.10569	628.01935	-536.16852	106.22701	633.03577	-538.52386	-40.52299	536.63867	343.12970	106.85852	530.53876	342.95386	
2629	26.280	-170.48433	83.91255	-488.45706	242.31210	81.40031	-491.04755	-152.01102	0.43683	183.13521	231.63159	9.05154	157.24918	65.96020	723.43311	-781.28522	-49.24471	628.56476	-535.90955	106.07729	633.67627	-538.42609	-40.74193	536.51508	343.26108	106.63329	530.56714	343.00458	
2630	26.290	-170.67149	84.16697	-488.38095	242.24002	81.61987	-490.91089	-152.21191	0.35119	183.19302	231.50551	9.06165	157.26830	65.90435	723.62744	-780.97681	-49.43550	628.97833	-535.84607	106.54582	634.07129	-538.22839	-40.76497	536.29169	343.26056	106.32762	530.65857	343.14578	
2631	26.300	-170.76701	84.29707	-488.31418	242.17928	81.75661	-490.88391	-152.28117	0.26249	183.29112	231.24844	9.05171	157.26370	65.69368	723.73468	-780.86487	-49.47182	629.29791	-535.68805	106.30306	634.51978	-538.02460	-40.98551	536.23761	343.36066	106.22129	530.60919	343.21609	
2632	26.310	-171.00797	84.46428	-488.28168	242.16261	81.91753	-490.81912	-152.58252	0.41278	183.13281	230.99263	9.08745	157.31903	65.53822	723.90491	-780.80725	-49.68353	629.70355	-535.50342	106.29809	634.89209	-537.82678	-41.37624	536.28784	343.46793	105.97012	530.51202	343.22916	
2633	26.320	-171.14920	84.58391	-488.32047	242.08852	82.13363	-490.78998	-152.73711	-0.00911	183.36876	230.88235	9.06771	157.37361	65.45971	723.92426	-780.66968	-50.07320	630.18121	-535.76062	106.31677	635.22693	-537.66077	-41.64970	536.09143	343.51004	105.72462	530.34106	343.28018	
2634	26.330	-171.19315	84.68443	-488.23718	241.94687	82.30939	-490.55243	-152.82390	-0.15827	183.46199	230.77194	9.05699	157.35881	65.53504	723.94592	-780.57117	-49.98391	630.45807	-535.67725	106.26537	635.48602	-537.43988	-42.00748	535.91541	343.56723	105.45810	530.03302	343.32578	
2635	26.340	-171.30728	84.86962	-488.28549	241.82866	82.49471	-490.36002	-152.86345	-0.25917	183.48676	230.57515	8.91186	157.37152	65.44119	724.11725	-780.46893	-49.54865	630.40338	-535.15332	106.13654	635.67859	-537.33978	-42.27187	535.64819	343.66550	105.12064	529.75208	343.44846	
2636	26.350	-171.33682	84.96096	-488.06509	241.68887	82.57397	-490.35593	-152.92029	-0.28177	183.53838	230.46858	8.80307	157.43407	65.46851	724.28992	-780.28052	-49.60231	630.58374	-535.03979	105.97670	635.99127	-537.23114	-42.40277	535.47430	343.74500	104.79797	529.59070	343.50726	
2637	26.360	-171.37709	85.15826	-487.99600	241.62439	82.67959	-490.29019	-152.94077	-0.32366	183.51688	230.40611	8.73924	157.49706	65.28738	724.63965	-779.72266	-49.67937	630.74133	-534.86969	105.82388	636.16443	-537.12488	-42.56577	535.37610	343.82324	104.67586	529.54260	343.57895	
2638	26.370	-171.33264	85.20204	-487.91040	241.58981	82.83853	-490.28168	-152.96872	-0.36243	183.51028	230.34593	8.73016	157.47820	65.08357	724.85046	-779.53461	-49.75176	630.95319	-534.80072	105.79717	636.29077	-536.89569	-42.67562	535.22522	343.89297	104.54387	529.54047	343.73541	
2639	26.380	-171.44763	85.29482	-487.87564	241.59943	82.98775	-490.25247	-152.97169	-0.35683	183.49634	230.32143	8.64480	157.58884	64.73279	725.15308	-779.33063	-49.80759	631.12415	-534.72418	105.65974	636.43127	-536.76160	-42.80336	535.13574	344.00702	104.45144	529.49866	343.91623	
2640	26.390	-171.50867	85.44590	-487.82007	241.63672	83.12181	-490.17236	-153.02412	-0.40202	183.51212	230.24753	8.61576	157.59319	64.53347	725.30420	-779.08557	-49.88509	631.30005	-534.60754	105.50483	636.80164	-536.81207	-42.89943	535.07343	344.08340	104.35631	529.43469	344.07849	
2641	26.400	-171.52567	85.63237	-487.78299	241.48256	83.26548	-490.14789	-153.03706	-0.42377	183.49655	230.14684	8.53860	157.68347	64.20110	725.40930	-778.80865	-50.03813	631.56989	-534.48059	105.38995	637.15363	-536.71344	-42.93499	534.94037	344.23514	105.04061	529.49261	344.97925	
2642	26.410	-171.71771	85.77557	-487.78433	241.45433	83.41548	-490.10593	-153.08716	-0.45478	183.50491	229.98250	8.48758	157.70015	64.18690	725.48425	-778.66577	-50.21487	632.04321	-534.31525	105.26401	637.44092	-536.58710	-42.90664	534.79169	344.36401	105.07343	529.35901	345.01401	
2643	26.420	-171.72678	85.88670	-487.76962	241.30565	83.49133	-490.04623	-153.17650	-0.44443	183.56075	229.86861	8.47608	157.71997	64.22205	725.68970	-778.47174	-50.17319	632.38367	-534.11621	105.32259	637.78882	-536.26953	-42.92060	534.71375	344.43597	104.35757	529.12854	344.43024	
2644	26.430	-171.76102	85.93279	-487.77844	241.32037	83.50216	-490.06165	-153.19342	-0.51990	183.55446	229.91022	8.44388	157.76765	64.32970	725.88531	-778.26318	-50.27499	632.83136	-533.97418	105.34290	638.15796	-536.07697	-42.72290	534.35632	344.38272	104.44327	528.88635	344.54224	
2645	26.440	-171.80719	86.02019	-487.78979	241.30063	83.63629	-489.96133	-153.28210	-0.52379	183.59924	229.87389	8.42585	157.78900	64.05384	726.20667	-778.18445	-50.35302	633.16107	-533.79584	105.21029	638.55707	-535.94720	-42.84449	534.18011	344.44522	104.35208	528.57629	344.69727	
2646	26.450	-171.83330	86.08477	-487.82712	241.34435	83.65703	-489.93347	-153.33879	-0.50977	183.61879	229.85432	8.39023	157.80347	63.99281	726.35925	-778.17322	-50.31376	633.54633	-533.58838	105.14814	639.07410	-535.82751	-42.88949	534.00403	344.51791	104.06108	528.46881	344.70584	
2647	26.460	-171.86736	86.14334	-487.83838	241.20883	83.63931	-489.95004	-153.38380	-0.55868	183.64995	229.85495	8.40891	157.83305	63.87042	726.50812	-778.19397	-50.33547	633.94598	-533.42139	105.12684	639.46216	-535.73260	-42.89744	533.90076	344.57489	103.44614	528.40759	344.71185	
2648	26.470	-171.92500	86.19759	-487.82254	241.25946	83.64050	-489.92551	-153.41760	-0.49982	183.63902	229.86339	8.40370	157.86447	63.88364	726.54633	-778.22229	-50.40324	634.43903	-533.27777	105.03490	639.85352	-535.70343	-42.92943	533.78992	344.60577	103.73599	528.21124	344.76010	
2649	26.480	-171.90236	86.13178	-487.86414	241.21658	83.68312	-489.97092	-153.41757	-0.50521	183.65179	229.85689	8.38066	157.87674	63.89563	726.56519	-778.21912	-50.44786	634.90149	-533.32208	105.19582	640.28491	-535.49292	-42.98652	533.70172	344.65973	103.77425	528.10669	344.83084	
